:SAMPLES-PER-SECOND 30
:FULLY-SPECIFIED
:DEGREES
308
root  16.4507 39.5797 2.92266 -9.64594 77.8308 -13.8709
RightUpLeg  -23.892 -11.233 -0.789956
RightLeg  8.44344 -11.3396 2.93163
RightFoot  -5.18584 -0.300721 4.92681
RightToes  0.00048216 0.542163 -0.142577
Spine  11.8074 -1.52549 0.841199
Spine1  2.90631 -2.05826 1.93041
HEad  -14.8125 -8.23006 0.416267
LeftShoulder1  8.62615 -12.4694 -47.1237
LeftArm  -0.428611 12.8483 -26.1159
LeftForeArm  22.6096 -19.0469 -4.47314
LeftHand  -0.25398 0.0180481 5.50724
RightShoulder  5.28033 8.89246 36.5995
RightArm  -2.41168 -25.0481 36.9133
RightForeArm  3.3078 17.941 5.52046
RightHand  -0.732454 0.438325 -14.6255
LeftUpLeg  10.5453 6.83369 2.02167
LeftLeg  4.65466 25.0203 -3.68949
LeftFoot  -16.5412 -0.103012 -4.4409
LeftToes  1.06246e-005 4.65856e-005 -8.18501e-006
309
root  17.2144 39.3653 3.23132 -8.23972 78.7115 -12.2807
RightUpLeg  -24.0323 -8.60788 -2.63361
RightLeg  5.27845 -14.5772 4.3267
RightFoot  -3.90585 -0.348356 4.93726
RightToes  0.00048216 0.542163 -0.142577
Spine  12.3268 -1.71775 0.638251
Spine1  2.89496 -2.25929 1.86233
HEad  -15.6728 -9.19452 0.850803
LeftShoulder1  8.63206 -12.4888 -47.0981
LeftArm  -0.295523 11.9203 -26.4371
LeftForeArm  22.0306 -22.0623 -3.8881
LeftHand  -0.25398 0.0180481 5.50724
RightShoulder  5.29437 8.90699 36.661
RightArm  -5.16537 -26.206 37.1698
RightForeArm  5.58458 15.901 5.82337
RightHand  -0.606662 -0.19366 -13.5321
LeftUpLeg  11.8312 6.97038 2.25117
LeftLeg  5.25455 23.5183 -3.57422
LeftFoot  -17.4355 -0.205684 -5.79903
LeftToes  1.06246e-005 4.65856e-005 -8.18501e-006
310
root  18.0774 39.1484 3.60932 -8.0798 79.8632 -11.7397
RightUpLeg  -24.3305 -8.49706 -2.89126
RightLeg  5.19503 -14.0652 4.33937
RightFoot  -2.17723 -0.37742 4.53187
RightToes  0.00048216 0.542163 -0.142577
Spine  12.8953 -1.89973 0.490831
Spine1  2.93506 -2.56947 2.28355
HEad  -16.2124 -10.3245 1.04109
LeftShoulder1  8.61409 -12.4618 -47.0793
LeftArm  -2.12202 11.328 -26.8491
LeftForeArm  23.0454 -24.8787 -4.072
LeftHand  -0.25398 0.0180481 5.50724
RightShoulder  5.28125 8.91024 36.5472
RightArm  -7.45358 -27.0937 37.3539
RightForeArm  8.12198 13.937 6.00209
RightHand  -0.485662 -0.909501 -12.4707
LeftUpLeg  13.3494 7.30758 3.12121
LeftLeg  6.24538 21.065 -3.46971
LeftFoot  -18.2402 -0.353545 -7.67993
LeftToes  1.06246e-005 4.65856e-005 -8.18501e-006
311
root  19.0509 38.9791 4.06206 -10.9651 81.1118 -14.249
RightUpLeg  -24.8563 -10.1766 -1.5397
RightLeg  8.00779 -11.0647 3.35266
RightFoot  0.35398 -0.286053 2.85694
RightToes  0.00048216 0.542163 -0.142577
Spine  13.4309 -2.07354 0.884663
Spine1  2.89037 -2.87491 2.89756
HEad  -16.4985 -11.6263 1.04688
LeftShoulder1  8.60588 -12.4275 -47.1366
LeftArm  -4.30568 11.1333 -27.1847
LeftForeArm  24.3237 -27.4599 -4.60214
LeftHand  -0.25398 0.0180481 5.50724
RightShoulder  5.24872 8.8432 36.516
RightArm  -9.02839 -27.7745 37.2558
RightForeArm  10.9542 12.4256 5.964
RightHand  -0.404448 -1.36815 -11.4748
LeftUpLeg  14.6447 8.23609 4.83285
LeftLeg  8.05652 18.1641 -2.83415
LeftFoot  -18.3093 -0.444829 -9.08863
LeftToes  1.06246e-005 4.65856e-005 -8.18501e-006
312
root  20.1531 38.8408 4.57918 -16.8851 81.8918 -19.77
RightUpLeg  -25.5652 -13.5129 1.38863
RightLeg  12.3183 -6.17656 1.7927
RightFoot  2.98904 0.00538972 0.121613
RightToes  0.00048216 0.542163 -0.142577
Spine  13.8368 -2.1832 2.09855
Spine1  2.80169 -2.87962 2.99182
HEad  -16.6641 -12.956 1.08373
LeftShoulder1  8.60053 -12.4109 -47.1566
LeftArm  -6.0498 11.4496 -27.3889
LeftForeArm  25.3821 -29.8762 -5.09456
LeftHand  -0.25398 0.0180481 5.50724
RightShoulder  5.26647 8.79872 36.8048
RightArm  -10.0525 -28.102 36.7982
RightForeArm  13.629 11.2902 5.80304
RightHand  -0.350489 -1.60955 -10.4998
LeftUpLeg  15.8089 11.2617 7.61461
LeftLeg  10.7872 13.2896 -1.36443
LeftFoot  -17.7936 -0.536242 -11.3553
LeftToes  1.06246e-005 4.65856e-005 -8.18501e-006
313
root  21.3384 38.7096 5.13098 -23.5895 81.9689 -25.8916
RightUpLeg  -26.003 -16.4463 4.41634
RightLeg  16.8354 -2.21349 0.160434
RightFoot  4.00479 0.3652 -2.53543
RightToes  0.00048216 0.542163 -0.142577
Spine  14.254 -2.26007 3.83602
Spine1  2.82094 -2.58377 2.58477
HEad  -16.631 -13.9608 1.16899
LeftShoulder1  8.59938 -12.4222 -47.1162
LeftArm  -7.46433 12.3698 -27.3903
LeftForeArm  26.4622 -32.142 -5.5742
LeftHand  -0.25398 0.0180481 5.50724
RightShoulder  5.38234 8.93308 37.2597
RightArm  -10.8649 -27.7623 36.2602
RightForeArm  15.5395 10.1772 5.62362
RightHand  -0.305457 -1.84947 -9.68293
LeftUpLeg  16.6823 15.2716 10.9033
LeftLeg  14.6342 7.05774 0.654424
LeftFoot  -16.6816 -0.657361 -16.3414
LeftToes  1.06246e-005 4.65856e-005 -8.18501e-006
314
root  22.5193 38.606 5.68424 -29.6096 81.8995 -31.2878
RightUpLeg  -25.6191 -17.1989 5.85998
RightLeg  20.8354 -1.63365 -0.941527
RightFoot  2.57287 0.55362 -4.39935
RightToes  0.00048216 0.542163 -0.142577
Spine  14.7781 -2.43376 5.59676
Spine1  2.84423 -2.28305 2.20239
HEad  -16.1474 -14.5907 1.16053
LeftShoulder1  8.62804 -12.4815 -47.0976
LeftArm  -8.26797 13.6416 -27.1281
LeftForeArm  27.3134 -33.9288 -5.96961
LeftHand  -0.25398 0.0180481 5.50724
RightShoulder  5.48453 9.10527 37.4729
RightArm  -11.5844 -26.6627 36.0608
RightForeArm  16.5113 9.24251 5.43843
RightHand  -0.276121 -2.05527 -9.21578
LeftUpLeg  15.2637 14.8257 12.5154
LeftLeg  21.5753 5.98051 3.22256
LeftFoot  -13.2605 -0.260355 -20.9471
LeftToes  1.06246e-005 4.65856e-005 -8.18501e-006
315
root  23.6569 38.5793 6.21528 -35.0856 82.163 -36.403
RightUpLeg  -24.5183 -17.6002 6.25654
RightLeg  23.6758 -2.21299 -1.29345
RightFoot  -0.23961 0.52623 -5.41426
RightToes  0.00048216 0.542163 -0.142577
Spine  15.1917 -2.60859 7.16488
Spine1  2.66882 -2.04242 1.76188
HEad  -15.2536 -15.3555 1.07964
LeftShoulder1  8.67735 -12.5873 -47.0551
LeftArm  -8.19909 14.6378 -26.7574
LeftForeArm  27.8093 -34.8049 -6.16605
LeftHand  -0.25398 0.0180481 5.50724
RightShoulder  5.43703 9.03955 37.3261
RightArm  -11.9046 -24.9793 36.1638
RightForeArm  16.5218 9.15371 5.36911
RightHand  -0.282462 -1.96879 -9.21153
LeftUpLeg  10.4266 10.0675 11.9572
LeftLeg  32.3089 10.1088 7.21285
LeftFoot  -5.13652 0.951934 -18.4994
LeftToes  1.06246e-005 4.65856e-005 -8.18501e-006
316
root  24.7126 38.5552 6.67022 -42.684 82.3538 -43.8927
RightUpLeg  -23.3199 -18.9669 6.98296
RightLeg  25.6428 -1.88407 -1.22155
RightFoot  -3.05819 0.402677 -5.8282
RightToes  0.00048216 0.542163 -0.142577
Spine  15.4189 -2.7545 9.42732
Spine1  2.61516 -1.5875 1.03415
HEad  -14.3959 -16.6978 1.10679
LeftShoulder1  8.70704 -12.6949 -46.8997
LeftArm  -7.64229 14.9147 -26.577
LeftForeArm  28.2359 -34.8901 -6.16376
LeftHand  -0.25398 0.0180481 5.50724
RightShoulder  5.33379 8.83699 37.2061
RightArm  -11.0636 -22.6831 35.8845
RightForeArm  15.1803 10.1165 5.61438
RightHand  -0.336379 -1.47564 -9.73135
LeftUpLeg  3.58948 6.15406 11.3102
LeftLeg  44.0775 10.8145 11.2973
LeftFoot  4.99853 1.21388 -8.65928
LeftToes  1.06246e-005 4.65856e-005 -8.18501e-006
317
root  25.706 38.5195 7.05376 -49.2939 82.0671 -50.2207
RightUpLeg  -21.7872 -20.0511 7.64181
RightLeg  27.083 -1.43179 -1.04823
RightFoot  -5.44058 0.268338 -5.90404
RightToes  0.00048216 0.542163 -0.142577
Spine  15.5952 -2.69179 11.9163
Spine1  3.06479 -0.815324 0.212624
HEad  -13.8506 -18.3477 1.29003
LeftShoulder1  8.7091 -12.7543 -46.7345
LeftArm  -7.36594 14.7158 -26.6612
LeftForeArm  28.775 -34.7786 -6.10338
LeftHand  -0.25398 0.0180481 5.50724
RightShoulder  5.39151 8.88134 37.5047
RightArm  -8.62569 -19.3892 34.6173
RightForeArm  12.6127 11.4137 6.0996
RightHand  -0.433752 -0.738086 -10.7281
LeftUpLeg  -3.02159 3.20428 10.8526
LeftLeg  53.6472 7.58517 11.2902
LeftFoot  10.1518 0.179356 -1.0503
LeftToes  1.06246e-005 4.65856e-005 -8.18501e-006
318
root  26.7581 38.6291 7.44527 -50.0663 81.9528 -50.3474
RightUpLeg  -19.0723 -20.67 7.28723
RightLeg  27.201 -1.06791 -0.789613
RightFoot  -7.37684 0.150553 -5.77591
RightToes  0.00048216 0.542163 -0.142577
Spine  15.6919 -2.2871 12.8578
Spine1  3.74619 -0.0237123 -0.337721
HEad  -13.2895 -19.7078 1.47774
LeftShoulder1  8.7031 -12.7584 -46.6889
LeftArm  -7.53668 14.6816 -26.8015
LeftForeArm  29.0971 -34.7563 -6.07885
LeftHand  -0.25398 0.0180481 5.50724
RightShoulder  5.60334 9.20586 38.0418
RightArm  -5.65594 -14.967 32.7005
RightForeArm  10.4796 12.1557 6.57526
RightHand  -0.552424 -0.00702399 -11.9269
LeftUpLeg  -8.43951 1.37312 9.94318
LeftLeg  60.0271 3.94424 7.94429
LeftFoot  9.12226 -0.0283197 -0.195863
LeftToes  1.06246e-005 4.65856e-005 -8.18501e-006
